{"title":"Have I Got A Bit More News For You S55E09. revittony","magnet":"magnet:?xt=urn:btih:9054fed774b1313a043ec25b4ea387d1159fc1ca&dn=Have+I+Got+A+Bit+More+News+For+You+S55E09.+revittony&tr=udp%3A%2F%2Ftracker.leechers-paradise.org%3A6969&tr=udp%3A%2F%2Fzer0day.ch%3A1337&tr=udp%3A%2F%2Fopen.demonii.com%3A1337&tr=udp%3A%2F%2Ftracker.coppersurfer.tk%3A6969&tr=udp%3A%2F%2Fexodus.desync.com%3A6969","uploader":"revittony1","categoryP":"video","categoryS":"tv_shows","size":"516412675","seeders":"2","leechers":"9","description":"Have I Got A Bit More News For You S55E09.mp4 \r\nFormat : MPEG-4 \r\nFormat profile : Base Media \r\nCodec ID : isom (isom/iso2/avc1/mp41) \r\nFile size : 492 MiB \r\nDuration : 42 min 7 s \r\nOverall bit rate mode : Variable \r\nOverall bit rate : 1 635 kb/s \r\n\r\nVideo \r\nID : 1 \r\nFormat : AVC \r\nFormat/Info : Advanced Video Codec \r\nFormat profile : Main@L3.1 \r\nFormat settings : CABAC / 4 Ref Frames \r\nFormat settings, CABAC : Yes \r\nFormat settings, RefFrames : 4 frames \r\nFormat settings, GOP : M=8, N=96 \r\nCodec ID : avc1 \r\nCodec ID/Info : Advanced Video Coding \r\nDuration : 42 min 7 s \r\nBit rate : 1 536 kb/s \r\nWidth : 960 pixels \r\nHeight : 540 pixels \r\nDisplay aspect ratio : 16:9 \r\nFrame rate mode : Constant \r\nFrame rate : 25.000 FPS \r\nColor space : YUV \r\nChroma subsampling : 4:2:0 \r\nBit depth : 8 bits \r\nScan type : Progressive \r\nBits/(Pixel*Frame) : 0.119 \r\nStream size : 463 MiB (94%) \r\nColor range : Limited \r\nColor primaries : BT.709 \r\nTransfer characteristics : BT.709 \r\nMatrix coefficients : BT.709 \r\n\r\nAudio \r\nID : 2 \r\nFormat : AAC \r\nFormat/Info : Advanced Audio Codec \r\nFormat profile : HE-AAC / LC \r\nFormat settings : Implicit \r\nCodec ID : mp4a-40-2 \r\nDuration : 42 min 7 s \r\nBit rate mode : Variable \r\nBit rate : 96.0 kb/s \r\nChannel(s) : 2 channels \r\nChannel positions : Front: L R \r\nSampling rate : 48.0 kHz / 24.0 kHz \r\nFrame rate : 23.438 FPS (1024 SPF) \r\nCompression mode : Lossy \r\nStream size : 28.5 MiB (6%) \r\nLanguage : English \r\nDefault : Yes \r\nAlternate group : 1","last_updated":"2018-06-05T12:11:52.272Z","parsed":{"xt":"urn:btih:9054fed774b1313a043ec25b4ea387d1159fc1ca","dn":"Have I Got A Bit More News For You S55E09. revittony","tr":["udp://exodus.desync.com:6969","udp://open.demonii.com:1337","udp://tracker.coppersurfer.tk:6969","udp://tracker.leechers-paradise.org:6969","udp://zer0day.ch:1337"],"infoHash":"9054fed774b1313a043ec25b4ea387d1159fc1ca","infoHashBuffer":{"type":"Buffer","data":[144,84,254,215,116,177,49,58,4,62,194,91,78,163,135,209,21,159,193,202]},"name":"Have I Got A Bit More News For You S55E09. revittony","announce":["udp://exodus.desync.com:6969","udp://open.demonii.com:1337","udp://tracker.coppersurfer.tk:6969","udp://tracker.leechers-paradise.org:6969","udp://zer0day.ch:1337"],"urlList":[]}}